<svg xmlns="http://www.w3.org/2000/svg" version="1.1" xmlns:xlink="http://www.w3.org/1999/xlink" xmlns:svgjs="http://svgjs.dev/svgjs" width="1440" height="560" preserveAspectRatio="none" viewBox="0 0 1440 560"><g mask="url(&quot;#SvgjsMask1006&quot;)" fill="none"><rect width="1440" height="560" x="0" y="0" fill="rgba(1, 1, 1, 1)"></rect><path d="M671.39,447.838C708.608,450.079,750.19,441.177,768.027,408.436C785.403,376.541,766.762,339.467,747.05,308.96C729.457,281.733,703.799,259.562,671.39,258.881C637.864,258.177,606.488,276.453,590.018,305.663C573.825,334.382,576.627,369.284,593.004,397.899C609.498,426.718,638.245,445.843,671.39,447.838" fill="rgba(133, 133, 133, 0.4)" class="triangle-float1"></path><path d="M690.6083153246541 236.87008518361523L853.5908365148853 219.73993193224408 836.4606832635142 56.75741074201284 673.478162073283 73.88756399338399z" fill="rgba(133, 133, 133, 0.4)" class="triangle-float1"></path><path d="M1027.5418552514047 210.0661436313029L1150.0126474952535 328.56058332457513 1188.5679679120635 184.670168626943z" fill="rgba(133, 133, 133, 0.4)" class="triangle-float2"></path><path d="M317.957507288828 21.8115418603286L225.81039441671703 81.52780010124357 310.5616868389728 126.59086162765695z" fill="rgba(133, 133, 133, 0.4)" class="triangle-float3"></path><path d="M466.0156648573391 233.8168063409247L515.7465598582673 386.87276317427234 668.8025166916149 337.14186817334416 619.0716216906867 184.08591133999653z" fill="rgba(133, 133, 133, 0.4)" class="triangle-float1"></path><path d="M936.8826991820415 577.9069936631702L873.929092802132 500.0140971264435 841.1327500438401 581.1878939276262z" fill="rgba(133, 133, 133, 0.4)" class="triangle-float3"></path></g><defs><mask id="SvgjsMask1006"><rect width="1440" height="560" fill="#ffffff"></rect></mask></defs></svg>